<svg width="20" height="21" viewBox="0 0 20 21" fill="none" xmlns="http://www.w3.org/2000/svg">
<path d="M2.43123 12.8633C1.85626 12.2883 1.85626 11.3561 2.43123 10.7811L10.2811 2.93124C10.585 2.62732 11.0066 2.47138 11.4351 2.50434L16.2688 2.87616C16.9928 2.93186 17.5681 3.50717 17.6238 4.23123L17.9957 9.06486C18.0286 9.4934 17.8727 9.91495 17.5688 10.2189L9.71887 18.0688C9.14389 18.6437 8.21166 18.6437 7.63669 18.0688L2.43123 12.8633Z" fill="#FD4D07"/>
<path d="M13.6283 6.87707L13.623 6.87704M16.2688 2.87616L11.4351 2.50434C11.0066 2.47138 10.585 2.62732 10.2811 2.93124L2.43123 10.7811C1.85626 11.3561 1.85626 12.2883 2.43123 12.8633L7.63669 18.0688C8.21166 18.6437 9.14389 18.6437 9.71887 18.0688L17.5688 10.2189C17.8727 9.91495 18.0286 9.4934 17.9957 9.06486L17.6238 4.23123C17.5681 3.50717 16.9928 2.93186 16.2688 2.87616Z" stroke="#1A1A1A" stroke-width="1.5" stroke-linecap="round" stroke-linejoin="round"/>
</svg>
