<svg width="20" height="21" viewBox="0 0 20 21" fill="none" xmlns="http://www.w3.org/2000/svg">
<path d="M15.0872 14.6347C14.6787 14.7033 14.4032 15.0901 14.4718 15.4986C14.5404 15.9071 14.9272 16.1826 15.3357 16.114L15.0872 14.6347ZM14.1793 10.068C13.7651 10.068 13.4293 10.4038 13.4293 10.818C13.4293 11.2322 13.7651 11.568 14.1793 11.568V10.068ZM13.4103 8.23489V8.98489C14.5943 8.98489 15.5538 8.02484 15.5538 6.84101H14.8038H14.0538C14.0538 7.19681 13.7655 7.48489 13.4103 7.48489V8.23489ZM12.0168 6.84101H11.2668C11.2668 8.02484 12.2263 8.98489 13.4103 8.98489V8.23489V7.48489C13.0551 7.48489 12.7668 7.19681 12.7668 6.84101H12.0168ZM13.4103 5.44713V4.69713C12.2263 4.69713 11.2668 5.65718 11.2668 6.84101H12.0168H12.7668C12.7668 6.48521 13.0551 6.19713 13.4103 6.19713V5.44713ZM14.8038 6.84101H15.5538C15.5538 5.65718 14.5943 4.69713 13.4103 4.69713V5.44713V6.19713C13.7655 6.19713 14.0538 6.48521 14.0538 6.84101H14.8038ZM17.5 13.1361H16.75C16.75 13.4988 16.635 13.8003 16.4071 14.0395C16.1724 14.2857 15.764 14.521 15.0872 14.6347L15.2114 15.3744L15.3357 16.114C16.2434 15.9615 16.9793 15.6131 17.4928 15.0744C18.013 14.5287 18.25 13.8442 18.25 13.1361H17.5ZM14.1793 10.818V11.568C14.9617 11.568 15.6378 11.7906 16.0981 12.1119C16.5609 12.435 16.75 12.8088 16.75 13.1361H17.5H18.25C18.25 12.1831 17.6957 11.3979 16.9567 10.882C16.2152 10.3643 15.2309 10.068 14.1793 10.068V10.818ZM9.38544 6.69048H8.63544C8.63544 7.59401 8.03796 8.10826 7.40986 8.10826V8.85826V9.60826C8.96393 9.60826 10.1354 8.32141 10.1354 6.69048H9.38544ZM7.40986 8.85826V8.10826C6.78176 8.10826 6.18427 7.59401 6.18427 6.69048H5.43427H4.68427C4.68427 8.32141 5.85578 9.60826 7.40986 9.60826V8.85826ZM5.43427 6.69048H6.18427C6.18427 6.23929 6.33729 5.93376 6.53582 5.74068C6.73896 5.5431 7.03863 5.41602 7.40986 5.41602V4.66602V3.91602C6.69 3.91602 6.00187 4.16754 5.49 4.66539C4.9735 5.16773 4.68427 5.87444 4.68427 6.69048H5.43427ZM7.40986 4.66602V5.41602C7.78109 5.41602 8.08075 5.5431 8.2839 5.74068C8.48242 5.93376 8.63544 6.23929 8.63544 6.69048H9.38544H10.1354C10.1354 5.87444 9.84622 5.16773 9.32972 4.66539C8.81784 4.16754 8.12971 3.91602 7.40986 3.91602V4.66602ZM12.5586 13.9726H11.8086C11.8086 14.2723 11.6547 14.6411 11.0117 14.9764C10.3438 15.3246 9.22366 15.5827 7.52928 15.5827V16.3327V17.0827C9.34015 17.0827 10.7346 16.8125 11.7051 16.3065C12.7004 15.7875 13.3086 14.9763 13.3086 13.9726H12.5586ZM7.52928 16.3327V15.5827C5.8349 15.5827 4.71472 15.3246 4.04691 14.9764C3.4039 14.6411 3.25 14.2723 3.25 13.9726H2.5H1.75C1.75 14.9763 2.35811 15.7875 3.35343 16.3065C4.32394 16.8125 5.7184 17.0827 7.52928 17.0827V16.3327ZM2.5 13.9726H3.25C3.25 13.7831 3.44233 13.3813 4.29166 12.9827C5.08148 12.612 6.22534 12.3625 7.52928 12.3625V11.6125V10.8625C6.05563 10.8625 4.68485 11.1412 3.65442 11.6248C2.68351 12.0804 1.75 12.8586 1.75 13.9726H2.5ZM7.52928 11.6125V12.3625C8.83322 12.3625 9.97708 12.612 10.7669 12.9827C11.6162 13.3813 11.8086 13.7831 11.8086 13.9726H12.5586H13.3086C13.3086 12.8586 12.375 12.0804 11.4041 11.6248C10.3737 11.1412 9.00293 10.8625 7.52928 10.8625V11.6125Z" fill="white"/>
</svg>
