<svg width="20" height="21" viewBox="0 0 20 21" fill="none" xmlns="http://www.w3.org/2000/svg">
<path d="M2.5 8.34671C2.5 8.03888 2.65668 7.75009 2.92048 7.57169L9.42048 3.17598C9.76744 2.94134 10.2326 2.94134 10.5795 3.17598L17.0795 7.57169C17.3433 7.75009 17.5 8.03888 17.5 8.34671V16.5735C17.5 17.3613 16.8284 18 16 18H4C3.17157 18 2.5 17.3613 2.5 16.5735V8.34671Z" stroke="black" stroke-width="1.5" fill="#FD4D07"/>
<path d="M11.875 11.4375C11.875 12.473 11.0355 13.3125 10 13.3125C8.96447 13.3125 8.125 12.473 8.125 11.4375C8.125 10.402 8.96447 9.5625 10 9.5625C11.0355 9.5625 11.875 10.402 11.875 11.4375Z" stroke="black" stroke-width="1.5"/>
</svg>
