<svg width="20" height="21" viewBox="0 0 20 21" fill="#FD4D07" xmlns="http://www.w3.org/2000/svg">
<path d="M10 15V10M16.4 15.3C15.5163 15.3 14.8 16.0163 14.8 16.9C14.8 17.7837 15.5163 18.5 16.4 18.5C17.2837 18.5 18 17.7837 18 16.9C18 16.0163 17.2837 15.3 16.4 15.3ZM16.4 15.3L16.4 10.7C16.4 10.2582 16.0418 9.9 15.6 9.9H4.4C3.95817 9.9 3.6 10.2582 3.6 10.7L3.6 15.3M3.6 15.3C2.71635 15.3 2 16.0163 2 16.9C2 17.7837 2.71635 18.5 3.6 18.5C4.48366 18.5 5.2 17.7837 5.2 16.9C5.2 16.0163 4.48366 15.3 3.6 15.3ZM10 18.5C9.11634 18.5 8.4 17.7837 8.4 16.9C8.4 16.0163 9.11634 15.3 10 15.3C10.8837 15.3 11.6 16.0163 11.6 16.9C11.6 17.7837 10.8837 18.5 10 18.5ZM5 6.5H15C15.5523 6.5 16 6.05228 16 5.5V3.5C16 2.94772 15.5523 2.5 15 2.5H5C4.44772 2.5 4 2.94772 4 3.5V5.5C4 6.05228 4.44772 6.5 5 6.5Z" stroke="#1A1A1A" stroke-width="1.5" stroke-linecap="round"/>
</svg>
