<svg width="20" height="21" viewBox="0 0 20 21" fill="#FD4D07" xmlns="http://www.w3.org/2000/svg">
<path d="M14.1667 7.99935V6.33268C14.1667 5.89065 13.9911 5.46673 13.6785 5.15417C13.366 4.84161 12.942 4.66602 12.5 4.66602H4.16667C3.72464 4.66602 3.30072 4.84161 2.98816 5.15417C2.67559 5.46673 2.5 5.89065 2.5 6.33268V11.3327C2.5 11.7747 2.67559 12.1986 2.98816 12.5112C3.30072 12.8238 3.72464 12.9993 4.16667 12.9993H5.83333M7.5 7.99935H15.8333C16.7538 7.99935 17.5 8.74554 17.5 9.66602V14.666C17.5 15.5865 16.7538 16.3327 15.8333 16.3327H7.5C6.57953 16.3327 5.83333 15.5865 5.83333 14.666V9.66602C5.83333 8.74554 6.57953 7.99935 7.5 7.99935ZM13.3333 12.166C13.3333 13.0865 12.5871 13.8327 11.6667 13.8327C10.7462 13.8327 10 13.0865 10 12.166C10 11.2455 10.7462 10.4993 11.6667 10.4993C12.5871 10.4993 13.3333 11.2455 13.3333 12.166Z" stroke="#1A1A1A" stroke-width="1.5" stroke-linecap="round" stroke-linejoin="round"/>
</svg>
