<svg width="20" height="21" viewBox="0 0 20 21" fill="none" xmlns="http://www.w3.org/2000/svg">
<path fill-rule="evenodd" clip-rule="evenodd" d="M11.3969 4.09689C11.0407 2.63437 8.95934 2.63437 8.60308 4.09689C8.54989 4.31666 8.44557 4.52077 8.29859 4.6926C8.15162 4.86443 7.96615 4.99914 7.75728 5.08575C7.54842 5.17237 7.32205 5.20845 7.0966 5.19106C6.87115 5.17366 6.653 5.10329 6.45989 4.98566C5.1736 4.20189 3.70168 5.67379 4.48545 6.96006C4.99172 7.7907 4.54264 8.87447 3.59761 9.10416C2.13413 9.45948 2.13413 11.5417 3.59761 11.8961C3.81744 11.9493 4.02159 12.0538 4.19342 12.2008C4.36526 12.3479 4.49993 12.5335 4.58646 12.7425C4.673 12.9515 4.70895 13.1779 4.6914 13.4034C4.67385 13.6289 4.60328 13.8471 4.48545 14.0402C3.70168 15.3264 5.1736 16.7983 6.45989 16.0146C6.65296 15.8967 6.87114 15.8262 7.09664 15.8086C7.32215 15.7911 7.54862 15.827 7.7576 15.9136C7.96658 16.0001 8.15217 16.1348 8.29925 16.3066C8.44634 16.4784 8.55076 16.6826 8.60402 16.9024C8.95934 18.3659 11.0416 18.3659 11.396 16.9024C11.4494 16.6827 11.5539 16.4787 11.7011 16.307C11.8482 16.1353 12.0337 16.0007 12.2427 15.9142C12.4516 15.8277 12.678 15.7917 12.9034 15.8091C13.1288 15.8266 13.347 15.897 13.5401 16.0146C14.8264 16.7983 16.2983 15.3264 15.5145 14.0402C15.3969 13.8471 15.3265 13.6289 15.3091 13.4035C15.2916 13.178 15.3276 12.9516 15.4141 12.7427C15.5006 12.5338 15.6352 12.3483 15.8069 12.2011C15.9787 12.054 16.1827 11.9495 16.4024 11.8961C17.8659 11.5408 17.8659 9.45854 16.4024 9.10416C16.1826 9.0509 15.9784 8.94648 15.8066 8.7994C15.6347 8.65231 15.5001 8.46673 15.4135 8.25775C15.327 8.04877 15.291 7.82231 15.3086 7.59681C15.3262 7.3713 15.3967 7.15313 15.5145 6.96006C16.2983 5.67379 14.8264 4.20189 13.5401 4.98566C13.347 5.10348 13.1289 5.17405 12.9034 5.1916C12.6778 5.20915 12.4514 5.1732 12.2424 5.08666C12.0334 5.00013 11.8478 4.86546 11.7007 4.69363C11.5537 4.5218 11.4492 4.31766 11.396 4.09783L11.3969 4.09689Z" stroke="white" stroke-width="1.5"/>
<path d="M11.6667 10.5C11.6667 11.4205 10.9205 12.1667 10 12.1667C9.07953 12.1667 8.33333 11.4205 8.33333 10.5C8.33333 9.57953 9.07953 8.83333 10 8.83333C10.9205 8.83333 11.6667 9.57953 11.6667 10.5Z" stroke="white" stroke-width="1.5"/>
</svg>
