<svg width="20" height="21" viewBox="0 0 20 21" fill="none" xmlns="http://www.w3.org/2000/svg">
<path d="M15.8947 14.2895V6.71053M13.7895 16.3947H6.63158M4.10526 14.0789V6.92105M6.21053 4.60526H13.5789M2.84211 6.71053H5.36842C5.8335 6.71053 6.21053 6.3335 6.21053 5.86842V3.34211C6.21053 2.87702 5.8335 2.5 5.36842 2.5H2.84211C2.37702 2.5 2 2.87702 2 3.34211V5.86842C2 6.3335 2.37702 6.71053 2.84211 6.71053ZM14.6316 6.71053H17.1579C17.623 6.71053 18 6.3335 18 5.86842V3.34211C18 2.87702 17.623 2.5 17.1579 2.5H14.6316C14.1665 2.5 13.7895 2.87702 13.7895 3.34211V5.86842C13.7895 6.3335 14.1665 6.71053 14.6316 6.71053ZM2.84211 18.5H5.36842C5.8335 18.5 6.21053 18.123 6.21053 17.6579V15.1316C6.21053 14.6665 5.8335 14.2895 5.36842 14.2895H2.84211C2.37702 14.2895 2 14.6665 2 15.1316V17.6579C2 18.123 2.37702 18.5 2.84211 18.5ZM14.6316 18.5H17.1579C17.623 18.5 18 18.123 18 17.6579V15.1316C18 14.6665 17.623 14.2895 17.1579 14.2895H14.6316C14.1665 14.2895 13.7895 14.6665 13.7895 15.1316V17.6579C13.7895 18.123 14.1665 18.5 14.6316 18.5Z" stroke="white" stroke-width="1.5" stroke-linecap="round"/>
</svg>
