<svg width="22" height="14" viewBox="0 0 22 14" fill="none" xmlns="http://www.w3.org/2000/svg">
<rect x="0.355469" y="0.847656" width="21.6439" height="12.3029" rx="1.82265" fill="white"/>
<path d="M12.144 11.5235C14.5644 11.5351 16.7735 9.54961 16.7735 7.13421C16.7735 4.49284 14.5644 2.66709 12.144 2.66797H10.0611C7.61174 2.66709 5.5957 4.49338 5.5957 7.13421C5.5957 9.55014 7.61174 11.5351 10.0611 11.5235H12.144Z" fill="#0079BE"/>
<path d="M10.0718 3.03125C7.83368 3.03195 6.02006 4.84611 6.01953 7.08513C6.02006 9.32377 7.83367 11.1377 10.0718 11.1384C12.3105 11.1377 14.1245 9.32377 14.1248 7.08513C14.1244 4.84611 12.3105 3.03195 10.0718 3.03125ZM7.50318 7.08513C7.50529 5.99102 8.18861 5.05802 9.15217 4.68727V9.48243C8.18861 9.11189 7.50527 8.1794 7.50318 7.08513ZM10.9911 9.48348V4.68711C11.955 5.05697 12.6394 5.99049 12.6411 7.08513C12.6394 8.18011 11.955 9.11292 10.9911 9.48348Z" fill="white"/>
<path d="M12.144 11.5235C14.5644 11.5351 16.7735 9.54961 16.7735 7.13421C16.7735 4.49284 14.5644 2.66709 12.144 2.66797H10.0611C7.61174 2.66709 5.5957 4.49338 5.5957 7.13421C5.5957 9.55014 7.61174 11.5351 10.0611 11.5235H12.144Z" fill="#0079BE"/>
<path d="M10.0718 3.03125C7.83368 3.03195 6.02006 4.84611 6.01953 7.08513C6.02006 9.32377 7.83367 11.1377 10.0718 11.1384C12.3105 11.1377 14.1245 9.32377 14.1248 7.08513C14.1244 4.84611 12.3105 3.03195 10.0718 3.03125ZM7.50318 7.08513C7.50529 5.99102 8.18861 5.05802 9.15217 4.68727V9.48243C8.18861 9.11189 7.50527 8.1794 7.50318 7.08513ZM10.9911 9.48348V4.68711C11.955 5.05697 12.6394 5.99049 12.6411 7.08513C12.6394 8.18011 11.955 9.11292 10.9911 9.48348Z" fill="white"/>
</svg>
