<svg width="22" height="14" viewBox="0 0 22 14" fill="none" xmlns="http://www.w3.org/2000/svg">
<rect x="0.0683594" y="0.847656" width="21.6439" height="12.3029" rx="1.82265" fill="#1A1A1A"/>
<g clip-path="url(#clip0_2478_54313)">
<path d="M12.276 4.30859H9.50391V9.2836H12.276V4.30859Z" fill="#FF5F00"/>
<path d="M9.68055 6.79395C9.68055 5.82708 10.1294 4.90415 10.8862 4.30645C9.51334 3.22531 7.52447 3.46263 6.44203 4.84263C5.35959 6.21383 5.5972 8.20031 6.97885 9.28146C8.13169 10.1868 9.74215 10.1868 10.895 9.28146C10.1294 8.68375 9.68055 7.76083 9.68055 6.79395Z" fill="#EB001B"/>
<path d="M16.0163 6.79395C16.0163 8.54311 14.5995 9.95827 12.8482 9.95827C12.1354 9.95827 11.449 9.72094 10.8945 9.28145C12.2674 8.20031 12.505 6.21383 11.4226 4.83384C11.2641 4.64046 11.0881 4.45588 10.8945 4.30645C12.2674 3.22531 14.2651 3.46263 15.3387 4.84263C15.7787 5.39638 16.0163 6.08198 16.0163 6.79395Z" fill="#F79E1B"/>
<path d="M15.7179 8.75587V8.65039H15.7619V8.63281H15.6562V8.65039H15.7003V8.75587H15.7179ZM15.9203 8.75587V8.63281H15.8851L15.8499 8.72071L15.8147 8.63281H15.7795V8.75587H15.8059V8.65918L15.8411 8.73829H15.8675L15.9027 8.65918V8.75587H15.9203Z" fill="#F79E1B"/>
</g>
<defs>
<clipPath id="clip0_2478_54313">
<rect width="10.2524" height="6.32863" fill="white" transform="translate(5.76367 3.62891)"/>
</clipPath>
</defs>
</svg>
