<svg width="18" height="18" viewBox="0 0 18 18" fill="none" xmlns="http://www.w3.org/2000/svg">
<path d="M17 12.7992V13.5492C17.4142 13.5492 17.75 13.2134 17.75 12.7992H17ZM17 8.39922H17.75C17.75 7.98501 17.4142 7.64922 17 7.64922V8.39922ZM4.99443 4.16834C4.646 4.39233 4.54513 4.85636 4.76912 5.20479C4.9931 5.55322 5.45714 5.65409 5.80557 5.4301L4.99443 4.16834ZM11 1.19922L11.592 0.738763C11.3537 0.432355 10.921 0.358425 10.5944 0.568335L11 1.19922ZM13.208 5.25968C13.4623 5.58664 13.9335 5.64554 14.2605 5.39123C14.5874 5.13693 14.6463 4.66572 14.392 4.33876L13.208 5.25968ZM17 12.0492H14.4V13.5492H17V12.0492ZM14.4 9.14922H17V7.64922H14.4V9.14922ZM16.25 8.39922V12.7992H17.75V8.39922H16.25ZM12.95 10.5992C12.95 9.79841 13.5992 9.14922 14.4 9.14922V7.64922C12.7708 7.64922 11.45 8.96998 11.45 10.5992H12.95ZM14.4 12.0492C13.5992 12.0492 12.95 11.4 12.95 10.5992H11.45C11.45 12.2285 12.7708 13.5492 14.4 13.5492V12.0492ZM5.80557 5.4301L11.4056 1.8301L10.5944 0.568335L4.99443 4.16834L5.80557 5.4301ZM10.408 1.65967L13.208 5.25968L14.392 4.33876L11.592 0.738763L10.408 1.65967ZM1.8 5.54922H15.4V4.04922H1.8V5.54922ZM15.4 16.0492H1.8V17.5492H15.4V16.0492ZM1.75 15.9992V5.59922H0.25V15.9992H1.75ZM1.8 16.0492C1.77239 16.0492 1.75 16.0268 1.75 15.9992H0.25C0.25 16.8553 0.943957 17.5492 1.8 17.5492V16.0492ZM15.45 15.9992C15.45 16.0268 15.4276 16.0492 15.4 16.0492V17.5492C16.256 17.5492 16.95 16.8553 16.95 15.9992H15.45ZM15.4 5.54922C15.4276 5.54922 15.45 5.5716 15.45 5.59922H16.95C16.95 4.74318 16.256 4.04922 15.4 4.04922V5.54922ZM1.8 4.04922C0.943958 4.04922 0.25 4.74318 0.25 5.59922H1.75C1.75 5.57161 1.77239 5.54922 1.8 5.54922V4.04922ZM15.45 13.3992V15.9992H16.95V13.3992H15.45ZM15.45 5.59922V7.69922H16.95V5.59922H15.45Z" fill="#868686"/>
</svg>
