<svg width="23" height="14" viewBox="0 0 23 14" fill="none" xmlns="http://www.w3.org/2000/svg">
<g clip-path="url(#clip0_2478_54321)">
<rect x="0.710938" y="0.847656" width="21.6439" height="12.3029" rx="1.82265" fill="#006FCF"/>
<path d="M10.2793 12.9219H22.3543V0.846838H10.2793V12.9219Z" fill="#006FCF"/>
<path d="M14.6543 11.0094L19.4289 11.0195L20.1787 10.183L20.934 11.0164H22.3551V9.79584L21.465 8.83596L22.3551 7.88479V6.68964L14.6543 6.68272V11.0094Z" fill="white"/>
<path fill-rule="evenodd" clip-rule="evenodd" d="M15.168 10.5391V7.16287H18.0307V7.94062H16.0948V8.46856H17.9845V9.23341H16.0948V9.75196H18.0307V10.539L15.168 10.5391Z" fill="#006FCF"/>
<path d="M21.1803 7.16292L20.2096 8.23301L19.2417 7.16292H18.0156L19.5997 8.84905L18.0157 10.5391H19.2084L20.1834 9.45825L21.1685 10.5391H22.3537V10.4911L20.8034 8.84905L22.3537 7.18951V7.16292H21.1803Z" fill="#006FCF"/>
<path d="M20.6037 2.84518L20.2071 3.95438L19.8119 2.84518H17.5203V4.32563L16.8682 2.84518H15.012L13.1055 7.17188H22.3536V2.84518H20.6037Z" fill="white"/>
<path fill-rule="evenodd" clip-rule="evenodd" d="M15.492 5.25104L15.9412 4.17718L16.3902 5.25104H15.492ZM15.3633 3.31027L13.8652 6.68359H14.8927L15.1753 6.00812H16.7067L16.9891 6.68359H18.0421L16.5503 3.31027H15.3633Z" fill="#006FCF"/>
<path d="M18.0293 6.68743L18.9377 6.68744V4.37031L19.7995 6.68744H20.6159L21.4602 4.37818V6.69531L22.3547 6.68744V3.31413H20.9647L20.2167 5.39294L19.4736 3.31911L18.0293 3.31412V6.68743Z" fill="#006FCF"/>
</g>
<defs>
<clipPath id="clip0_2478_54321">
<rect x="0.710938" y="0.847656" width="21.6439" height="12.3029" rx="1.82265" fill="white"/>
</clipPath>
</defs>
</svg>
