<svg width="18" height="14" viewBox="0 0 18 14" fill="none" xmlns="http://www.w3.org/2000/svg">
<path d="M1.49961 4.74988H16.4996M4.49962 8.24988H6.99962M3 1.25H14.9997C16.1042 1.25 16.9996 2.14473 16.9997 3.24927L16.9999 10.7508C16.9999 11.8554 16.1045 12.75 14.9999 12.75L3.0002 12.7499C1.89566 12.7498 1.00025 11.8545 1.00021 10.7499L1 3.25006C0.999968 2.14546 1.89541 1.25 3 1.25Z" stroke="#868686" stroke-width="1.5" stroke-linecap="round" stroke-linejoin="round"/>
<path d="M1.49961 4.74988H16.4996M4.49962 8.24988H6.99962M3 1.25H14.9997C16.1042 1.25 16.9996 2.14473 16.9997 3.24927L16.9999 10.7508C16.9999 11.8554 16.1045 12.75 14.9999 12.75L3.0002 12.7499C1.89566 12.7498 1.00025 11.8545 1.00021 10.7499L1 3.25006C0.999968 2.14546 1.89541 1.25 3 1.25Z" stroke="black" stroke-opacity="0.2" stroke-width="1.5" stroke-linecap="round" stroke-linejoin="round"/>
<path d="M1.49961 4.74988H16.4996M4.49962 8.24988H6.99962M3 1.25H14.9997C16.1042 1.25 16.9996 2.14473 16.9997 3.24927L16.9999 10.7508C16.9999 11.8554 16.1045 12.75 14.9999 12.75L3.0002 12.7499C1.89566 12.7498 1.00025 11.8545 1.00021 10.7499L1 3.25006C0.999968 2.14546 1.89541 1.25 3 1.25Z" stroke="black" stroke-opacity="0.2" stroke-width="1.5" stroke-linecap="round" stroke-linejoin="round"/>
</svg>
