<svg width="138" height="127" viewBox="0 0 138 127" fill="none" xmlns="http://www.w3.org/2000/svg">
<path d="M10.3166 66.8454L8.43864 66.4355L8.01111 64.5611C8.00389 64.529 7.98596 64.5003 7.96027 64.4797C7.93459 64.4592 7.90267 64.448 7.86977 64.448C7.83674 64.4482 7.80472 64.4595 7.7788 64.48C7.75288 64.5004 7.73454 64.529 7.72667 64.5611L7.29914 66.4443L5.42117 66.8895C5.38879 66.8975 5.36003 66.9161 5.33952 66.9424C5.31901 66.9686 5.30794 67.0011 5.30811 67.0344C5.30827 67.0673 5.31978 67.0992 5.3407 67.1246C5.36162 67.15 5.39066 67.1675 5.42294 67.174L7.30091 67.5838L7.72667 69.4583C7.73454 69.4903 7.75288 69.5189 7.7788 69.5394C7.80472 69.5598 7.83674 69.5711 7.86977 69.5713C7.90267 69.5713 7.93459 69.5601 7.96027 69.5396C7.98596 69.519 8.00389 69.4903 8.01111 69.4583L8.44041 67.575L10.3184 67.1298C10.3514 67.1234 10.3812 67.1057 10.4026 67.0798C10.424 67.0538 10.4357 67.0212 10.4357 66.9876C10.4357 66.9539 10.424 66.9214 10.4026 66.8954C10.3812 66.8695 10.3514 66.8518 10.3184 66.8454H10.3166ZM57.7463 1.7437L56.3807 1.4469L56.0697 0.0830335C56.0646 0.0596531 56.0516 0.0387194 56.033 0.0236415C56.0144 0.00856348 55.9912 0.000229653 55.9673 0C55.9432 0.000451065 55.9199 0.00883019 55.9011 0.0238409C55.8822 0.0388517 55.8689 0.0596569 55.863 0.0830335L55.5521 1.4522L54.1865 1.77727C54.1628 1.78252 54.1416 1.79573 54.1265 1.8147C54.1114 1.83367 54.1033 1.85725 54.1034 1.8815C54.1041 1.90561 54.1128 1.9288 54.1281 1.94737C54.1435 1.96595 54.1647 1.97884 54.1882 1.98397L55.5539 2.28076L55.863 3.64463C55.8689 3.66801 55.8822 3.68881 55.9011 3.70382C55.9199 3.71883 55.9432 3.72721 55.9673 3.72766C55.9912 3.72744 56.0144 3.71911 56.033 3.70403C56.0516 3.68895 56.0646 3.66801 56.0697 3.64463L56.3824 2.27546L57.7481 1.9504C57.7717 1.94541 57.7929 1.93221 57.8078 1.91314C57.8226 1.89406 57.8303 1.87034 57.8293 1.84617C57.8294 1.82213 57.8212 1.7988 57.8061 1.78013C57.791 1.76146 57.7698 1.74859 57.7463 1.7437ZM94.463 40.522L96.3409 40.1122L96.7667 38.2377C96.7745 38.2057 96.7929 38.1771 96.8188 38.1566C96.8447 38.1361 96.8767 38.1249 96.9098 38.1247C96.9427 38.1247 96.9746 38.1359 97.0003 38.1564C97.026 38.177 97.0439 38.2056 97.0511 38.2377L97.4804 40.121L99.3584 40.5662C99.3914 40.5726 99.4212 40.5903 99.4426 40.6162C99.464 40.6422 99.4757 40.6748 99.4757 40.7084C99.4757 40.7421 99.464 40.7746 99.4426 40.8006C99.4212 40.8265 99.3914 40.8442 99.3584 40.8506L97.4804 41.2605L97.0529 43.1349C97.0457 43.167 97.0277 43.1957 97.002 43.2163C96.9764 43.2368 96.9444 43.248 96.9115 43.248C96.8785 43.2478 96.8465 43.2365 96.8206 43.216C96.7947 43.1956 96.7763 43.167 96.7684 43.1349L96.3409 41.2517L94.463 40.8065C94.4306 40.7985 94.4018 40.7799 94.3813 40.7536C94.3608 40.7274 94.3497 40.6949 94.3499 40.6616C94.35 40.6289 94.3612 40.5973 94.3818 40.5719C94.4024 40.5465 94.431 40.5289 94.463 40.522ZM102.358 24.698L103.33 24.486L103.549 23.5161C103.553 23.4992 103.562 23.484 103.576 23.4732C103.589 23.4623 103.606 23.4564 103.623 23.4564C103.64 23.4564 103.657 23.4623 103.671 23.4732C103.684 23.484 103.694 23.4992 103.697 23.5161L103.918 24.4913L104.89 24.721C104.906 24.7252 104.921 24.7348 104.932 24.7482C104.942 24.7616 104.948 24.7781 104.948 24.7952C104.948 24.8123 104.942 24.8289 104.931 24.8421C104.92 24.8553 104.905 24.8643 104.888 24.8676L103.916 25.0796L103.697 26.0495C103.694 26.0664 103.684 26.0816 103.671 26.0924C103.657 26.1033 103.64 26.1092 103.623 26.1092C103.606 26.1092 103.589 26.1033 103.576 26.0924C103.562 26.0816 103.553 26.0664 103.549 26.0495L103.328 25.0743L102.356 24.8446C102.34 24.8406 102.325 24.8312 102.314 24.8177C102.304 24.8042 102.298 24.7876 102.298 24.7704C102.298 24.7533 102.304 24.7367 102.315 24.7235C102.326 24.7103 102.341 24.7013 102.358 24.698Z" fill="#FD4D07"/>
<path d="M88.1954 126.515H29.0969C27.3852 126.514 25.7442 125.833 24.5337 124.623C23.3232 123.413 22.642 121.772 22.6397 120.06V62.1505C22.6416 60.4386 23.3225 58.7972 24.533 57.5867C25.7436 56.3761 27.3849 55.6952 29.0969 55.6934H47.1169C48.356 55.6954 49.5686 56.053 50.6105 56.7238C51.6524 57.3946 52.4798 58.3504 52.9946 59.4776L54.9167 63.7052C55.3462 64.6477 56.0375 65.4469 56.9081 66.0078C57.7788 66.5688 58.7923 66.8678 59.828 66.8693H88.1954C89.9083 66.8688 91.5514 67.5482 92.7637 68.7582C93.9761 69.9683 94.6586 71.61 94.6614 73.3229V120.06C94.6591 121.773 93.9767 123.415 92.7643 124.626C91.5519 125.836 89.9086 126.516 88.1954 126.515ZM29.0969 56.7498C27.6654 56.7517 26.2932 57.3214 25.2813 58.3339C24.2695 59.3465 23.7006 60.7191 23.6997 62.1505V120.06C23.7016 121.491 24.2709 122.862 25.2827 123.874C26.2945 124.885 27.6662 125.454 29.0969 125.455H88.1954C89.6276 125.456 91.0016 124.889 92.0153 123.877C93.029 122.865 93.5995 121.492 93.6014 120.06V73.3229C93.5995 71.8921 93.0303 70.5204 92.0185 69.5086C91.0068 68.4969 89.6351 67.9276 88.2042 67.9258H59.8369C58.5975 67.9238 57.3847 67.566 56.3427 66.8948C55.3008 66.2237 54.4735 65.2674 53.9592 64.1398L52.0388 59.9122C51.6085 58.97 50.9169 58.1712 50.0459 57.6106C49.175 57.05 48.1615 56.7513 47.1257 56.7498H29.0969Z" fill="#3A3A3A"/>
<path d="M85.1479 126.516H17.7531C16.249 126.515 14.7923 125.989 13.6342 125.03C12.4761 124.07 11.6891 122.736 11.409 121.258L4.50312 84.6882C4.32669 83.7552 4.35822 82.7949 4.59548 81.8755C4.83273 80.9562 5.26988 80.1005 5.87574 79.3694C6.4816 78.6384 7.24127 78.05 8.1006 77.6461C8.95992 77.2423 9.89774 77.033 10.8472 77.0332H64.5963C66.1148 77.0308 67.5854 77.5645 68.7489 78.5402C69.9124 79.516 70.6941 80.8711 70.9563 82.3668L77.0354 116.757C78.6254 125.049 85.109 125.461 85.1744 125.465L85.1479 126.516ZM10.8472 78.0861C10.0539 78.0866 9.27037 78.262 8.55252 78.5999C7.83468 78.9377 7.20013 79.4296 6.69407 80.0406C6.188 80.6516 5.82286 81.3666 5.62463 82.1348C5.42641 82.903 5.39997 83.7054 5.54722 84.485L12.4531 121.055C12.6871 122.29 13.3444 123.405 14.3118 124.207C15.2793 125.009 16.4963 125.449 17.7531 125.45H81.6923C81.528 125.362 81.3584 125.274 81.1888 125.164C79.3197 124.027 76.9011 121.677 75.9913 116.937L69.9122 82.5434C69.6922 81.2937 69.0386 80.1616 68.0663 79.3464C67.0939 78.5311 65.8652 78.0848 64.5963 78.0861H10.8472Z" fill="#FD4D07"/>
<path d="M62.5938 24.127C64.4742 26.2143 65.1919 27.9108 65.2618 29.2656C65.333 30.6469 64.7347 31.7397 63.8721 32.5996C63.0041 33.4648 61.8826 34.0772 60.9639 34.4756C60.507 34.6738 60.1057 34.8172 59.8194 34.9102C59.6767 34.9565 59.5629 34.9906 59.4854 35.0127C59.4799 35.0143 59.474 35.0151 59.4688 35.0166C59.4392 35.0063 59.4035 34.994 59.3624 34.9795C59.2276 34.9321 59.0332 34.8636 58.796 34.7783C58.3214 34.6078 57.6753 34.3712 56.9883 34.1074C56.3009 33.8435 55.5751 33.5528 54.9405 33.2744C54.4594 33.0633 54.0425 32.864 53.7364 32.6924L53.4688 32.5312C52.8435 32.1143 51.9193 31.2152 51.1319 30.3945C50.7429 29.9891 50.3946 29.6101 50.1436 29.333C50.1168 29.3034 50.091 29.2752 50.0665 29.248L54.1866 27.5059L54.1876 27.5068L62.5938 24.127Z" stroke="#FD4D07" stroke-width="0.706667"/>
<path d="M25.077 49.0334C20.8971 49.0334 17.1836 48.1501 13.9364 46.3834C8.29722 43.3165 4.13143 37.4458 1.88776 29.4093C0.856246 25.7304 0.284205 21.938 0.184692 18.1185V17.7387L40.4064 4.21484L40.5212 4.81021C43.726 21.4434 49.079 28.5507 53.008 31.5876C57.1526 34.7905 60.5323 34.2022 60.5658 34.1952L63.2158 33.697L60.951 35.1615C46.6675 44.3959 34.6594 49.0334 25.077 49.0334ZM1.24469 18.4983C1.38988 22.1032 1.94887 25.6794 2.91066 29.1566C4.42116 34.5538 7.64709 41.7653 14.4399 45.4577C24.5064 50.9273 39.4365 47.4876 58.838 35.2446C57.2922 35.0679 54.9514 34.4354 52.3491 32.4179C49.7468 30.4004 47.4024 27.4112 45.3937 23.5227C42.9698 18.8305 41.0194 12.8026 39.5902 5.59991L1.24469 18.4983Z" fill="#FD4D07"/>
<path d="M19.664 44.1977L19.3583 43.1836C19.482 43.1465 31.8186 39.4083 43.0016 34.4015L43.4345 35.3679C32.1879 40.4047 19.7947 44.1606 19.664 44.1977ZM16.1094 39.6256L15.8003 38.6115C15.9045 38.5797 26.4232 35.3396 39.1203 29.9937L39.5301 30.9707C26.7819 36.3378 16.2154 39.592 16.1094 39.6256ZM12.2139 34.5446L11.9048 33.5323C12.0055 33.5023 22.0331 30.4301 35.2354 25.2484L35.6223 26.236C22.3793 31.4318 12.3146 34.5146 12.2139 34.5446ZM9.50033 28.9584L9.1947 27.9426C9.29717 27.9108 19.5456 24.8792 24.3668 22.7168L24.8014 23.6849C19.9219 25.8756 9.60457 28.9284 9.50033 28.9584Z" fill="#3A3A3A"/>
<path d="M116.056 83.5742L121.29 91.8789L117.733 94.1204L112.499 85.8157L116.056 83.5742Z" stroke="#FD4D07" stroke-width="0.706667"/>
<path d="M104.657 88.382C103.23 88.3817 101.808 88.2217 100.417 87.905C95.7136 86.8275 91.6012 83.9913 88.923 79.9781C86.2448 75.965 85.2037 71.0791 86.0134 66.3227C86.8232 61.5664 89.4222 57.3002 93.2775 54.3993C97.1327 51.4983 101.952 50.1826 106.746 50.722C111.541 51.2614 115.947 53.615 119.062 57.3C122.176 60.985 123.762 65.722 123.495 70.5394C123.228 75.3568 121.127 79.8892 117.624 83.207C114.121 86.5248 109.481 88.3764 104.657 88.382ZM104.591 51.4586C100.617 51.4659 96.7584 52.7936 93.6214 55.2331C90.4844 57.6727 88.2471 61.0856 87.2612 64.9353C86.2754 68.785 86.597 72.8532 88.1754 76.5002C89.7538 80.1472 92.4996 83.1663 95.9809 85.0826C99.4622 86.999 103.482 87.704 107.407 87.0868C111.333 86.4696 114.942 84.5652 117.668 81.673C120.393 78.7809 122.08 75.065 122.463 71.1095C122.846 67.1541 121.904 63.1835 119.785 59.822C118.174 57.2504 115.934 55.1329 113.275 53.6704C110.617 52.2079 107.629 51.449 104.595 51.4657L104.591 51.4586Z" fill="#FD4D07"/>
<path d="M104.644 83.9897C102.104 83.9935 99.6064 83.3345 97.3987 82.0778C95.1909 80.8211 93.3492 79.0103 92.0553 76.8241C90.7615 74.6379 90.0603 72.152 90.0211 69.612C89.9819 67.0719 90.6059 64.5656 91.8316 62.3405C93.0573 60.1154 94.8423 58.2485 97.0102 56.9243C99.1781 55.6 101.654 54.8642 104.193 54.7895C106.732 54.7148 109.247 55.3038 111.489 56.4983C113.731 57.6929 115.623 59.4516 116.977 61.6008C118.37 63.8083 119.145 66.3487 119.222 68.9575C119.3 71.5663 118.676 74.1482 117.417 76.4343C116.158 78.7204 114.308 80.6271 112.062 81.9559C109.816 83.2847 107.254 83.987 104.644 83.9897ZM104.595 55.8361C101.59 55.8397 98.6713 56.8418 96.2981 58.685C93.9249 60.5281 92.2315 63.1077 91.4843 66.0182C90.7371 68.9288 90.9783 72.0051 92.1702 74.7635C93.3621 77.5219 95.4369 79.806 98.0685 81.2566C100.7 82.7072 103.739 83.2421 106.708 82.7771C109.677 82.3121 112.406 80.8736 114.468 78.6878C116.53 76.5021 117.808 73.693 118.099 70.7023C118.39 67.7115 117.679 64.7087 116.078 62.1661C115.133 60.6576 113.899 59.3516 112.446 58.3235C110.993 57.2955 109.351 56.5659 107.614 56.1771C106.623 55.9514 105.611 55.837 104.595 55.8361Z" fill="#FD4D07"/>
<path d="M131.646 117.327C130.812 117.329 129.99 117.119 129.259 116.717C128.528 116.316 127.91 115.735 127.464 115.03L117.444 99.1303C116.745 98.0228 116.515 96.6834 116.805 95.4065C117.094 94.1296 117.879 93.0199 118.986 92.3215C120.093 91.6232 121.433 91.3933 122.71 91.6825C123.987 91.9718 125.096 92.7564 125.795 93.8638L135.817 109.764C136.287 110.509 136.549 111.367 136.575 112.249C136.601 113.13 136.391 114.002 135.965 114.774C135.54 115.546 134.915 116.19 134.157 116.638C133.398 117.087 132.533 117.324 131.651 117.325L131.646 117.327ZM121.609 92.6201C120.917 92.6215 120.238 92.8083 119.643 93.161C119.047 93.5137 118.557 94.0195 118.223 94.6258C117.89 95.2321 117.724 95.9167 117.745 96.6085C117.765 97.3003 117.97 97.9741 118.339 98.5596L128.362 114.46C128.633 114.89 128.986 115.262 129.401 115.556C129.817 115.85 130.286 116.059 130.782 116.171C131.278 116.284 131.791 116.298 132.292 116.212C132.793 116.126 133.273 115.942 133.703 115.671C134.133 115.399 134.506 115.046 134.8 114.631C135.093 114.216 135.302 113.747 135.415 113.251C135.527 112.755 135.541 112.241 135.455 111.74C135.369 111.239 135.185 110.759 134.914 110.329L124.892 94.4292C124.622 93.9975 124.27 93.6237 123.854 93.3292C123.439 93.0348 122.97 92.8256 122.473 92.7137C122.19 92.6504 121.9 92.619 121.609 92.6201Z" fill="#FD4D07"/>
</svg>
