<svg width="1002" height="220" viewBox="0 0 1002 220" fill="none" xmlns="http://www.w3.org/2000/svg">
<path d="M122.57 129.75L0 7.18H122.57V129.75Z" fill="#FD4D07"/>
<path d="M182.66 216.05V7.96H281.56C305.02 7.96 323.26 13.87 336.28 25.69C349.29 37.51 355.8 53.69 355.8 74.25C355.8 94.81 349.29 110.77 336.28 122.68C323.26 134.58 305.03 140.53 281.56 140.53H226.07V216.06H182.66V216.05ZM226.07 102.76H278.99C289.78 102.76 298 100.24 303.65 95.18C309.3 90.13 312.13 83.15 312.13 74.24C312.13 65.33 309.3 58.14 303.65 53.17C298 48.2 289.78 45.72 278.99 45.72H226.07V102.75V102.76Z" fill="black"/>
<path d="M393.05 216.05V104.04H371.98V61.91H415.14V92.23H425.93C430.04 81.44 436.54 73.39 445.45 68.08C454.35 62.77 464.37 60.11 475.51 60.11H488.61V97.1H473.71C460.35 97.1 450.54 100.87 444.3 108.41C438.05 115.95 434.92 125.88 434.92 138.21V216.05H393.05Z" fill="black"/>
<path d="M578.53 219.13C561.74 219.13 547.15 215.83 534.73 209.24C522.31 202.65 512.68 193.31 505.83 181.24C498.98 169.17 495.56 155 495.56 138.72C495.56 122.44 498.94 108.32 505.71 96.33C512.47 84.34 522.15 75.1 534.74 68.58C547.33 62.08 562.01 58.82 578.8 58.82C595.59 58.82 610.1 62.08 622.34 68.58C634.59 75.09 644.09 84.34 650.86 96.33C657.62 108.32 661.01 122.53 661.01 138.97C661.01 155.41 657.67 169.41 650.99 181.49C644.31 193.56 634.76 202.86 622.34 209.36C609.92 215.87 595.33 219.12 578.54 219.12L578.53 219.13ZM578.53 182.14C591.38 182.14 601.22 178.24 608.08 170.45C614.93 162.66 618.35 152.08 618.35 138.72C618.35 125.36 614.93 114.87 608.08 107.25C601.22 99.63 591.38 95.82 578.53 95.82C565.68 95.82 555.54 99.63 548.6 107.25C541.66 114.87 538.19 125.36 538.19 138.72C538.19 152.08 541.66 162.66 548.6 170.45C555.54 178.24 565.51 182.14 578.53 182.14Z" fill="black"/>
<path d="M687.2 216.05V0.26H729.84V216.05H687.2Z" fill="black"/>
<path d="M786.61 46.75C780.1 46.75 774.58 44.48 770.04 39.94C765.5 35.41 763.24 29.88 763.24 23.37C763.24 16.86 765.5 11.34 770.04 6.8C774.58 2.26 780.1 -0.0100002 786.61 -0.0100002C793.12 -0.0100002 798.64 2.26 803.18 6.8C807.72 11.34 809.99 16.86 809.99 23.37C809.99 29.88 807.72 35.4 803.18 39.94C798.64 44.48 793.11 46.75 786.61 46.75ZM765.29 216.05V61.91H807.94V216.05H765.29Z" fill="black"/>
<path d="M857.77 216.05V95.31H830.28V61.92H858.28V34.43C858.28 22.78 861.36 14.18 867.53 8.61C873.7 3.05 882.34 0.26 893.48 0.26H937.67V33.65H899.9V61.91H934.58V95.3H900.41V216.04H857.77V216.05ZM978.25 46.75C971.74 46.75 966.22 44.48 961.68 39.94C957.14 35.41 954.88 29.88 954.88 23.37C954.88 16.86 957.14 11.34 961.68 6.8C966.22 2.26 971.74 -0.0100002 978.25 -0.0100002C984.76 -0.0100002 990.28 2.26 994.82 6.8C999.36 11.34 1001.63 16.86 1001.63 23.37C1001.63 29.88 999.36 35.4 994.82 39.94C990.28 44.48 984.75 46.75 978.25 46.75ZM956.93 216.05V61.91H999.57V216.05H956.93Z" fill="black"/>
</svg>
