<svg width="18" height="19" viewBox="0 0 18 19" fill="none" xmlns="http://www.w3.org/2000/svg">
<path d="M2.5 16.0002C2.78696 15.6788 4.71487 14.1647 5.67313 13.4183C6.02213 13.1464 6.45023 13.0002 6.89262 13.0002C7.96233 13.0002 10.0237 13.0002 11.0985 13.0002C11.5461 13.0002 11.9785 13.1526 12.3388 13.4181C13.5761 14.3296 14.7361 15.0088 16 16.0002M4 17.5H14C15.6569 17.5 17 16.1569 17 14.5V4.5C17 2.84315 15.6569 1.5 14 1.5H4C2.34315 1.5 1 2.84315 1 4.5V14.5C1 16.1569 2.34315 17.5 4 17.5ZM11.8655 7.2267C11.8655 5.70044 10.577 4.4534 9 4.4534C7.42302 4.4534 6.13454 5.70044 6.13454 7.2267C6.13454 8.75296 7.42302 10 9 10C10.577 10 11.8655 8.75296 11.8655 7.2267Z" stroke="#393939" stroke-width="1.5"/>
</svg>
