<svg width="23" height="14" viewBox="0 0 23 14" fill="none" xmlns="http://www.w3.org/2000/svg">
<rect x="0.71389" y="1.13772" width="21.0638" height="11.7227" rx="1.53258" fill="white"/>
<rect x="0.71389" y="1.13772" width="21.0638" height="11.7227" rx="1.53258" stroke="#D2D2D2" stroke-width="0.580124"/>
<g clip-path="url(#clip0_2478_54310)">
<path d="M14.0078 4.03906C12.7336 4.03906 11.5897 4.70205 11.5897 5.91867C11.5897 7.31982 13.6105 7.41551 13.6105 8.11267C13.6105 8.40658 13.268 8.67314 12.6925 8.67314C11.8705 8.67314 11.254 8.30405 11.254 8.30405L10.9937 9.53434C10.9937 9.53434 11.6993 9.84874 12.6446 9.84874C14.042 9.84874 15.1381 9.15842 15.1381 7.91446C15.1381 6.43812 13.1104 6.34243 13.1104 5.69311C13.1104 5.46073 13.3913 5.20783 13.9667 5.20783C14.6175 5.20783 15.1518 5.4744 15.1518 5.4744L15.4121 4.28512C15.4052 4.28512 14.823 4.03906 14.0078 4.03906ZM2.33503 4.12792L2.30078 4.30562C2.30078 4.30562 2.8351 4.40131 3.32146 4.59953C3.94483 4.82508 3.98593 4.95494 4.09554 5.3582L5.23952 9.75305H6.77397L9.12359 4.12792H7.59599L6.08209 7.95547L5.46558 4.70888C5.41077 4.3398 5.12307 4.12792 4.76686 4.12792H2.33503ZM9.7401 4.12792L8.54132 9.75305H10.0004L11.1923 4.12792H9.7401ZM17.8644 4.12792C17.5151 4.12792 17.3301 4.31246 17.1931 4.64054L15.0559 9.75305H16.5835L16.878 8.89869H18.7413L18.9194 9.75305H20.2689L19.0975 4.12792H17.8644ZM18.0631 5.6521L18.5152 7.76409H17.3027L18.0631 5.6521Z" fill="#1434CB"/>
</g>
<defs>
<clipPath id="clip0_2478_54310">
<rect width="17.9681" height="5.80968" fill="white" transform="translate(2.30078 4.03906)"/>
</clipPath>
</defs>
</svg>
