<svg width="64" height="56" viewBox="0 0 64 56" fill="none" xmlns="http://www.w3.org/2000/svg">
<path d="M8.72845 50.9281L8.93463 46.543L12.2535 48.9991L8.72845 50.9281ZM9.43113 47.5885L9.31862 49.9837L11.2439 48.9303L9.43113 47.5885Z" fill="#FD4D07"/>
<path d="M57.3625 50.8936L57.231 47.2714L54.4657 50.0216L53.4221 47.8654L51.7976 48.548L51.5864 48.0456L53.6876 47.1627L54.6232 49.096L57.7305 46.0059L57.9073 50.8738L57.3625 50.8936Z" fill="#FD4D07"/>
<path d="M59.267 15.7246H50.0601V16.2697H59.267V15.7246Z" fill="#3A3A3A"/>
<path d="M59.2937 18.2305H54.2004V18.7756H59.2937V18.2305Z" fill="#3A3A3A"/>
<path d="M52.3483 18.2305H50.0332V18.7756H52.3483V18.2305Z" fill="#3A3A3A"/>
<path d="M51.6354 27.2611L51.8517 26.809C52.1131 26.2822 52.2351 25.6972 52.206 25.1098C52.1425 24.0272 51.8998 23.5545 51.7617 23.5111C51.3127 23.368 50.8766 23.187 50.4583 22.97C47.457 21.8437 45.5935 19.6361 45.5935 17.2055C45.5935 13.618 49.6622 10.6992 54.6635 10.6992C59.6647 10.6992 63.7334 13.618 63.7334 17.2055C63.7334 19.9959 61.2608 22.469 57.5783 23.3632C57.4857 23.398 57.3812 23.4365 57.2726 23.4734C56.7969 24.4754 56.0768 25.3416 55.1786 25.9922C54.2803 26.6429 53.2329 27.0572 52.1326 27.1969L51.6354 27.2611ZM54.6635 11.2443C49.9628 11.2443 46.1386 13.9186 46.1386 17.2055C46.1386 19.4068 47.8729 21.4224 50.6646 22.4652L50.6948 22.4787C51.0897 22.6846 51.5016 22.856 51.9259 22.9912C52.5171 23.1778 52.7004 24.229 52.7501 25.0779C52.7784 25.5865 52.7058 26.0956 52.5365 26.576C53.4721 26.3816 54.3486 25.9688 55.0944 25.3712C55.8402 24.7737 56.4343 24.0083 56.8281 23.1376L56.8783 23.0277L56.9934 22.9913C57.1322 22.9473 57.2674 22.8978 57.4017 22.8473L57.434 22.8373C60.8759 22.0065 63.1883 19.7433 63.1883 17.2055C63.1883 13.9186 59.3641 11.2443 54.6635 11.2443Z" fill="#FD4D07"/>
<path d="M44.7185 46.8201L44.3732 46.3985C46.3682 44.765 47.1282 43.2363 47.7987 41.8876C48.3415 40.7958 48.8103 39.8527 49.8042 39.1406L50.1218 39.5835C49.2382 40.2168 48.8183 41.0613 48.2869 42.1303C47.6263 43.4589 46.8042 45.1124 44.7185 46.8201ZM23.3611 52.4239C22.9313 52.4235 22.5113 52.2958 22.1541 52.0569C21.7969 51.8181 21.5184 51.4787 21.3539 51.0817C21.1893 50.6847 21.1461 50.2479 21.2296 49.8263C21.3131 49.4048 21.5196 49.0174 21.823 48.7131L23.7115 46.8246C24.1196 46.4175 24.6726 46.189 25.249 46.1893C25.8255 46.1897 26.3782 46.4188 26.7858 46.8264C27.1934 47.2341 27.4225 47.7868 27.4228 48.3632C27.4231 48.9397 27.1946 49.4927 26.7875 49.9007L24.8991 51.789C24.6975 51.9913 24.4577 52.1516 24.1937 52.2606C23.9297 52.3695 23.6467 52.4251 23.3611 52.4239ZM25.2494 46.7334C25.0354 46.733 24.8234 46.7749 24.6256 46.8567C24.4278 46.9385 24.2482 47.0585 24.0969 47.21L22.2084 49.0985C21.9027 49.4042 21.731 49.8188 21.731 50.2511C21.731 50.6834 21.9028 51.0981 22.2085 51.4037C22.5142 51.7094 22.9288 51.8811 23.3611 51.8811C23.7934 51.8811 24.208 51.7093 24.5137 51.4036L26.4021 49.5153C26.6302 49.2875 26.7855 48.997 26.8485 48.6808C26.9115 48.3646 26.8792 48.0368 26.7558 47.739C26.6324 47.4411 26.4233 47.1866 26.1552 47.0076C25.887 46.8286 25.5718 46.7331 25.2494 46.7334Z" fill="#3A3A3A"/>
<path d="M20.7088 49.7333C20.2786 49.7336 19.858 49.6062 19.5003 49.3674C19.1425 49.1285 18.8636 48.7888 18.6989 48.3914C18.5343 47.994 18.4912 47.5566 18.5752 47.1347C18.6592 46.7128 18.8665 46.3253 19.1708 46.0212L19.4712 45.7206C19.6731 45.5184 19.9129 45.3579 20.1769 45.2483C20.4409 45.1388 20.7238 45.0824 21.0096 45.0822C21.2954 45.0821 21.5785 45.1383 21.8425 45.2476C22.1066 45.3569 22.3465 45.5172 22.5486 45.7193C22.7507 45.9214 22.911 46.1614 23.0203 46.4254C23.1296 46.6895 23.1858 46.9725 23.1857 47.2583C23.1856 47.5441 23.1292 47.8271 23.0196 48.0911C22.9101 48.355 22.7496 48.5949 22.5473 48.7968L22.2469 49.0972C22.0451 49.2993 21.8053 49.4595 21.5413 49.5687C21.2774 49.6779 20.9945 49.7338 20.7088 49.7333ZM21.0093 45.6294C20.7952 45.6291 20.5832 45.671 20.3854 45.7527C20.1876 45.8345 20.0079 45.9546 19.8566 46.106L19.5562 46.4066C19.2505 46.7123 19.0788 47.1269 19.0788 47.5593C19.0788 47.9916 19.2506 48.4062 19.5563 48.7119C19.862 49.0175 20.2766 49.1893 20.7089 49.1892C21.1412 49.1892 21.5558 49.0175 21.8615 48.7118L22.1619 48.4114C22.39 48.1835 22.5454 47.8931 22.6083 47.5769C22.6713 47.2607 22.639 46.9329 22.5156 46.635C22.3922 46.3372 22.1832 46.0826 21.9151 45.9036C21.6469 45.7246 21.3317 45.6292 21.0093 45.6294ZM30.6545 55.8923C30.2582 55.8948 29.8689 55.7885 29.5289 55.5849C29.189 55.3813 28.9114 55.0882 28.7266 54.7377C28.5418 54.3872 28.4567 53.9927 28.4807 53.5971C28.5048 53.2016 28.6369 52.8202 28.8628 52.4947C28.9335 52.385 29.0153 52.2828 29.1068 52.1898L30.2323 51.0641C30.5876 50.7105 31.0536 50.4897 31.5522 50.4385C32.0509 50.3874 32.552 50.509 32.9717 50.7831L32.9976 50.8015C33.0006 50.8036 33.004 50.8061 33.0074 50.8088C33.1163 50.884 33.2177 50.9696 33.3101 51.0643C33.4013 51.156 33.4844 51.2555 33.5583 51.3617C33.8508 51.7792 33.9862 52.2866 33.9408 52.7942C33.8953 53.3019 33.6718 53.7771 33.3099 54.136L32.1909 55.2604C32.0939 55.3595 31.9851 55.4464 31.8671 55.5192C31.5104 55.7643 31.0873 55.8946 30.6545 55.8923ZM31.774 50.9722C31.5592 50.9714 31.3465 51.0131 31.148 51.0951C30.9496 51.177 30.7693 51.2975 30.6177 51.4495L29.4984 52.5688C29.4318 52.6369 29.372 52.7114 29.3199 52.7912C29.1474 53.0344 29.0454 53.3206 29.0252 53.6182C29.005 53.9157 29.0674 54.213 29.2054 54.4774C29.3434 54.7417 29.5518 54.9629 29.8075 55.1163C30.0632 55.2698 30.3563 55.3497 30.6545 55.3472C30.9813 55.3485 31.3006 55.2492 31.5692 55.063C31.6551 55.0103 31.7343 54.9474 31.805 54.8756L32.9252 53.7497C33.1925 53.4794 33.3574 53.1244 33.3915 52.7458C33.4256 52.3671 33.3268 51.9884 33.1121 51.6747C33.0561 51.5945 32.9934 51.5192 32.9247 51.4497C32.8542 51.377 32.7766 51.3115 32.6931 51.2542L32.6642 51.2332C32.3988 51.0622 32.0897 50.9715 31.774 50.9722ZM18.6333 46.2764L18.4516 46.1211C18.043 45.7899 17.6518 45.4377 17.2798 45.0659C16.3143 44.0735 15.517 42.9304 14.9193 41.6815C14.7447 41.3376 14.5876 41.0078 14.4357 40.6889C14.1822 40.1157 13.888 39.5613 13.5553 39.0302L13.5318 38.988C13.5157 38.9586 13.497 38.9307 13.4758 38.9047L13.9116 38.5772C13.9524 38.6287 13.9882 38.6839 14.0186 38.7422C14.3618 39.2907 14.6656 39.8629 14.9278 40.4545C15.0783 40.7704 15.2339 41.097 15.4054 41.4351C15.9776 42.632 16.7406 43.728 17.6646 44.6799C18.0267 45.0419 18.4076 45.3846 18.8056 45.7066L18.9875 45.8619L18.6333 46.2764ZM31.352 30.6725C29.8475 29.5816 27.8218 29.27 25.9331 29.839C25.8146 29.8744 25.7038 29.9075 25.5931 29.9352C23.7298 30.4761 22.2925 30.6416 21.3306 30.4246C21.2503 30.4116 21.1712 30.3921 21.0941 30.3662L21.0852 30.3632C21.0646 30.3575 21.0447 30.3499 21.0256 30.3405L21.257 29.8777L21.1475 30.0967L21.2295 29.8376C21.2452 29.8414 21.2607 29.8463 21.2758 29.8522C21.3241 29.8679 21.3737 29.8798 21.4239 29.8875L21.4429 29.8912C22.3014 30.0875 23.6874 29.921 25.451 29.4091C25.5635 29.3807 25.6664 29.3498 25.7691 29.3191C27.8262 28.6993 30.0306 29.0413 31.6717 30.231L31.352 30.6725ZM39.3681 51.5814C39.0825 51.5825 38.7995 51.527 38.5355 51.418C38.2715 51.309 38.0317 51.1488 37.8301 50.9465L35.9417 49.0581L36.3271 48.6727L38.2155 50.5611C38.5212 50.8666 38.9357 51.0381 39.3679 51.038C39.8001 51.038 40.2146 50.8662 40.5202 50.5607C40.8258 50.2551 40.9976 49.8406 40.9977 49.4084C40.9978 48.9762 40.8262 48.5617 40.5208 48.2559L37.0067 44.7419L37.3921 44.3565L40.9062 47.8705C41.2107 48.1744 41.4181 48.5619 41.5022 48.9838C41.5863 49.4057 41.5433 49.8431 41.3786 50.2405C41.2138 50.6379 40.9348 50.9775 40.5769 51.2162C40.219 51.4549 39.7983 51.582 39.3681 51.5814Z" fill="#3A3A3A"/>
<path d="M42.9568 49.8288C42.6712 49.8293 42.3883 49.7734 42.1243 49.6642C41.8604 49.5551 41.6206 49.3948 41.4188 49.1927L37.0058 44.7411L37.3929 44.3574L41.805 48.8082C42.1109 49.1137 42.5255 49.2852 42.9578 49.285C43.3901 49.2847 43.8046 49.1128 44.1101 48.807C44.4156 48.5013 44.5872 48.0866 44.587 47.6544C44.5869 47.2221 44.415 46.8076 44.1093 46.502L43.8089 46.2016L44.1943 45.8162L44.4947 46.1166C44.799 46.4206 45.0063 46.8081 45.0903 47.2301C45.1743 47.652 45.1313 48.0893 44.9666 48.4868C44.802 48.8842 44.5231 49.2239 44.1654 49.4628C43.8076 49.7017 43.387 49.8291 42.9568 49.8288ZM36.6186 54.2147C36.333 54.2152 36.0501 54.1592 35.7862 54.05C35.5223 53.9409 35.2825 53.7806 35.0807 53.5786L32.9902 51.4881L33.3756 51.1027L35.4661 53.1931C35.7718 53.4988 36.1864 53.6705 36.6187 53.6705C37.051 53.6705 37.4656 53.4988 37.7713 53.1931C38.077 52.8874 38.2487 52.4727 38.2487 52.0404C38.2487 51.6081 38.0769 51.1935 37.7712 50.8878L34.2393 47.3558L34.6247 46.9704L38.1566 50.5024C38.461 50.8065 38.6683 51.194 38.7523 51.6159C38.8363 52.0379 38.7932 52.4752 38.6286 52.8727C38.4639 53.2701 38.185 53.6098 37.8272 53.8487C37.4694 54.0876 37.0488 54.2149 36.6186 54.2147Z" fill="#3A3A3A"/>
<path d="M43.8077 46.2023L33.6454 36.0402C33.5469 35.9385 33.4293 35.8573 33.2993 35.8011C33.1694 35.7449 33.0296 35.7149 32.8881 35.7127C32.7465 35.7105 32.6059 35.7363 32.4743 35.7884C32.3427 35.8406 32.2226 35.9182 32.121 36.0168C31.2677 36.8332 30.0476 37.9965 29.3029 38.7064C28.9468 39.0461 28.6996 39.2817 28.6536 39.3259C28.2724 39.6901 27.7622 39.888 27.2352 39.8761C26.7081 39.8642 26.2073 39.6435 25.8429 39.2625L25.5871 38.9957C25.5271 38.9327 25.4724 38.8651 25.4233 38.7934C25.1374 38.4061 25.0021 37.9281 25.0426 37.4484C25.0831 36.9688 25.2967 36.5202 25.6435 36.1864L31.1323 30.9378C31.3998 30.6816 31.6856 30.4451 31.9874 30.2302C33.6266 29.0419 35.8306 28.7001 37.8812 29.3176C39.9762 29.9518 41.5483 30.1317 42.429 29.8388L42.6015 30.3558C41.3533 30.7723 39.26 30.3049 37.7236 29.8395C35.8356 29.2706 33.8099 29.5822 32.3054 30.6731C32.0244 30.8731 31.7583 31.0932 31.5092 31.3318L26.0213 36.5794C25.769 36.822 25.6139 37.1484 25.5852 37.4972C25.5564 37.846 25.656 38.1933 25.8651 38.474L25.8774 38.4917C25.9098 38.5383 25.9457 38.5822 25.9849 38.6232L26.237 38.886C26.3676 39.0235 26.5242 39.1337 26.6978 39.2102C26.8713 39.2866 27.0583 39.3277 27.2479 39.3312C27.6295 39.3374 27.9983 39.1944 28.276 38.9327C28.3222 38.8885 28.5699 38.6521 28.9269 38.312C29.6713 37.6022 30.8912 36.4391 31.744 35.6232C32.0541 35.3289 32.4671 35.1676 32.8946 35.1737C33.3221 35.1798 33.7303 35.3528 34.0319 35.6558L44.1931 45.8169L43.8077 46.2023ZM26.1105 55.0552C25.6803 55.0558 25.2596 54.9287 24.9017 54.69C24.5437 54.4513 24.2648 54.1117 24.1 53.7143C23.9353 53.3168 23.8923 52.8794 23.9764 52.4575C24.0605 52.0356 24.2679 51.6481 24.5724 51.3442L26.9601 48.9566C27.3682 48.5494 27.9212 48.3209 28.4976 48.3212C29.074 48.3215 29.6268 48.5506 30.0344 48.9582C30.442 49.3658 30.6712 49.9185 30.6715 50.495C30.6719 51.0714 30.4434 51.6244 30.0363 52.0325L27.6484 54.4204C27.4468 54.6226 27.207 54.7829 26.9431 54.8918C26.6791 55.0008 26.3961 55.0563 26.1105 55.0552ZM28.4982 48.8653C28.2841 48.865 28.0721 48.9069 27.8743 48.9887C27.6765 49.0705 27.4968 49.1905 27.3455 49.342L24.9578 51.7296C24.6524 52.0354 24.4808 52.4499 24.4809 52.8821C24.481 53.3143 24.6527 53.7287 24.9583 54.0343C25.2639 54.34 25.6783 54.5117 26.1105 54.5118C26.5427 54.5119 26.9573 54.3404 27.263 54.0349L29.6509 51.6471C29.8789 51.4193 30.0343 51.1288 30.0972 50.8127C30.1602 50.4965 30.1279 50.1687 30.0045 49.8709C29.8811 49.573 29.6721 49.3185 29.4039 49.1395C29.1358 48.9605 28.8206 48.8651 28.4982 48.8653Z" fill="#3A3A3A"/>
<path d="M51.2889 40.0997L41.4758 29.2918L43.6929 27.1699L44.0698 27.5638L42.2362 29.3184L51.312 39.3144L53.1168 37.547L53.4984 37.9364L51.2889 40.0997Z" fill="#3A3A3A"/>
<path d="M54.4348 39.788L42.3271 26.3313L42.7325 25.9668L54.4671 39.0091L57.1814 36.454L57.5551 36.8507L54.4348 39.788Z" fill="#3A3A3A"/>
<path d="M12.405 40.0997L10.1955 37.9366L10.5771 37.547L12.3819 39.3144L21.4577 29.3184L19.6241 27.5638L20.001 27.1699L22.2181 29.2918L12.405 40.0997Z" fill="#3A3A3A"/>
<path d="M9.25919 39.7882L6.21698 36.9228L6.59056 36.526L9.22685 39.0089L20.9613 25.9668L21.3666 26.3313L9.25919 39.7882Z" fill="#3A3A3A"/>
<path d="M25.6918 10.8501L22.1831 9.00523L18.6742 10.8501L19.3444 6.94282L16.5055 4.17561L20.4286 3.60566L22.1831 0.0507812L23.9375 3.60566L27.8605 4.17561L25.0216 6.94282L25.6918 10.8501ZM17.677 4.5564L19.9299 6.75259L19.3981 9.85357L22.1831 8.3895L24.9679 9.85357L24.4361 6.75259L26.6891 4.5564L23.5755 4.10392L22.1831 1.28259L20.7905 4.10392L17.677 4.5564ZM35.7597 19.8588C35.6952 19.8588 35.6314 19.8452 35.5725 19.8189C35.4861 19.7813 35.4135 19.7179 35.3647 19.6373C35.3158 19.5567 35.2932 19.4629 35.3 19.3689L35.3981 17.847C35.4615 16.8485 35.4875 16.4353 35.9436 15.435C35.9464 15.4292 40.0022 7.0649 40.0022 7.0649L42.7238 8.3242L38.635 16.7605C38.3806 17.3492 37.9941 17.8714 37.5056 18.2869C37.3764 18.4105 37.2325 18.5481 37.0685 18.715C36.7142 19.0756 36.3478 19.4502 36.0869 19.7188C36.0446 19.763 35.9938 19.7982 35.9376 19.8222C35.8814 19.8463 35.8209 19.8587 35.7597 19.8588ZM36.4383 15.6641C36.0252 16.5706 36.0042 16.9016 35.9421 17.8814L35.8589 19.1712C36.0993 18.9246 36.3935 18.6242 36.6796 18.333C36.8482 18.1616 36.996 18.0202 37.1287 17.893C37.5686 17.5238 37.9156 17.0565 38.1417 16.5286L41.9913 8.58575L40.2591 7.78425L36.4383 15.6641Z" fill="#FD4D07"/>
<path d="M35.4815 19.4214L35.0496 20.2852L35.5371 20.5289L35.969 19.6651L35.4815 19.4214Z" fill="#FD4D07"/>
<path d="M37.5475 17.8081C37.5234 17.7662 36.9414 16.788 35.8364 17.0094L35.7292 16.475C36.9248 16.2349 37.7507 17.0648 38.0204 17.5368L37.5475 17.8081ZM42.5107 8.77664L39.7818 7.51396L40.7099 5.47852L43.4389 6.74084L42.5107 8.77664ZM40.5026 7.24674L42.2421 8.05161L42.7182 7.00807L40.9785 6.20319L40.5026 7.24674Z" fill="#FD4D07"/>
<path d="M42.9918 6.62713L42.4957 6.40105L42.9897 5.31761C43.0048 5.28497 43.0064 5.24769 42.9941 5.21389C42.9818 5.18008 42.9567 5.1525 42.9242 5.13714L42.1601 4.7835C42.1446 4.77626 42.1278 4.77219 42.1107 4.77152C42.0935 4.77085 42.0764 4.7736 42.0604 4.77959C42.0439 4.78579 42.0289 4.79517 42.0161 4.8072C42.0032 4.81923 41.9929 4.83367 41.9857 4.84969L41.5176 5.87601L41.0215 5.64996L41.4896 4.62362C41.5264 4.54239 41.5789 4.46924 41.6441 4.40839C41.7093 4.34754 41.7859 4.30019 41.8695 4.26907C41.9531 4.23795 42.042 4.22367 42.1312 4.22705C42.2203 4.23043 42.3079 4.25141 42.3889 4.28878L43.1531 4.64243C43.3162 4.71849 43.4426 4.85589 43.5049 5.0247C43.5671 5.19352 43.5602 5.3801 43.4856 5.54384L42.9918 6.62713Z" fill="#FD4D07"/>
<path d="M23.1915 10.123H22.6464V23.286H23.1915V10.123Z" fill="#3A3A3A"/>
<path d="M41.0883 14.1211H40.5432V23.287H41.0883V14.1211Z" fill="#3A3A3A"/>
<path d="M41.0883 4.2387H40.5432V2.97479H25.3024V2.42969H41.0883V4.2387Z" fill="#3A3A3A"/>
<path d="M37.309 6.86328H27.5111V7.40838H37.309V6.86328Z" fill="#3A3A3A"/>
<path d="M37.3088 9.7832H32.1819V10.3283H37.3088V9.7832Z" fill="#3A3A3A"/>
<path d="M30.9024 9.7832H27.5111V10.3283H30.9024V9.7832Z" fill="#3A3A3A"/>
<path d="M34.1418 12.7012H25.8715V13.2463H34.1418V12.7012Z" fill="#3A3A3A"/>
<path d="M34.3576 15.6211H25.8715V16.1662H34.3576V15.6211Z" fill="#3A3A3A"/>
<path d="M34.2376 21.3764C33.7146 21.3764 33.4481 21.0729 33.2338 20.829C33.0306 20.5977 32.9028 20.467 32.6395 20.467C32.3762 20.467 32.2484 20.5977 32.0453 20.829C31.8309 21.0729 31.5644 21.3764 31.0415 21.3764C30.5189 21.3764 30.2524 21.0728 30.0382 20.829C29.8352 20.5977 29.7075 20.467 29.4445 20.467C29.1817 20.467 29.0541 20.5977 28.8515 20.829C28.6375 21.0728 28.3711 21.3764 27.8488 21.3764C27.3264 21.3764 27.0598 21.0728 26.8459 20.829C26.6429 20.5977 26.5153 20.467 26.2523 20.467V19.9219C26.7749 19.9219 27.0414 20.2255 27.2554 20.4693C27.4584 20.7005 27.586 20.8313 27.8488 20.8313C28.1114 20.8313 28.239 20.7005 28.4416 20.4695C28.6558 20.2255 28.9221 19.9219 29.4445 19.9219C29.9671 19.9219 30.2336 20.2255 30.4478 20.4693C30.6508 20.7005 30.7785 20.8313 31.0415 20.8313C31.3048 20.8313 31.4326 20.7005 31.6357 20.4693C31.8501 20.2253 32.1166 19.9219 32.6395 19.9219C33.1624 19.9219 33.429 20.2253 33.6433 20.4693C33.8465 20.7005 33.9742 20.8313 34.2376 20.8313V21.3764Z" fill="#FD4D07"/>
<path d="M5.97343 27.0072H5.42833V20.799H3.1925V26.9572H2.6474V20.2539H5.97343V27.0072Z" fill="#FD4D07"/>
<path d="M10.8396 27.0077H10.2945V18.801H8.05871V26.9426H7.51361V18.2559H10.8396V27.0077Z" fill="#FD4D07"/>
<path d="M15.5323 27.0072H14.9872V15.8459H12.7516V26.9185H12.2065V15.3008H15.5323V27.0072Z" fill="#FD4D07"/>
<path d="M13.4218 13.9226H12.8767V12.4572H11.4113V11.9121H13.4218V13.9226Z" fill="#3A3A3A"/>
<path d="M16.7413 26.9141H0.399902V27.4592H16.7413V26.9141Z" fill="#3A3A3A"/>
<path d="M0.304357 19.3691L0.26709 18.8254C2.68129 18.6587 5.03169 17.9763 7.15976 16.8242C9.28784 15.672 11.1441 14.0769 12.6034 12.1465L13.0378 12.4755C11.5316 14.4681 9.61553 16.1145 7.41894 17.3037C5.22235 18.4929 2.79627 19.1972 0.304357 19.3691Z" fill="#3A3A3A"/>
</svg>
