<svg width="32" height="33" viewBox="0 0 32 33" fill="none" xmlns="http://www.w3.org/2000/svg">
<path d="M8 1H24C28.1421 1 31.5 4.35786 31.5 8.5V24.5C31.5 28.6421 28.1421 32 24 32H8C3.85786 32 0.5 28.6421 0.5 24.5V8.5C0.5 4.35786 3.85786 1 8 1Z" stroke="#F3F3F3"/>
<path d="M18.5007 14.8359L14.7717 18.1692L13.5007 17.033M22.6673 12.3359L22.6673 20.6693C22.6673 22.05 21.548 23.1693 20.1673 23.1693H11.834C10.4533 23.1693 9.33398 22.05 9.33398 20.6693V12.3359C9.33398 10.9552 10.4533 9.83594 11.834 9.83594H20.1673C21.548 9.83594 22.6673 10.9552 22.6673 12.3359Z" stroke="#2D796D" stroke-width="2" stroke-linecap="round" stroke-linejoin="round"/>
</svg>
