<svg width="32" height="33" viewBox="0 0 32 33" fill="none" xmlns="http://www.w3.org/2000/svg">
<path d="M8 1H24C28.1421 1 31.5 4.35786 31.5 8.5V24.5C31.5 28.6421 28.1421 32 24 32H8C3.85786 32 0.5 28.6421 0.5 24.5V8.5C0.5 4.35786 3.85786 1 8 1Z" stroke="#F3F3F3"/>
<path d="M12.4583 20.8501V20.7857M16.2083 20.8501V20.7857M16.2083 17.3571V17.2927M19.5417 17.3571V17.2927M9.95833 13.9285H21.625M11.4663 9V10.2859M19.9583 9V10.2857M19.9583 10.2857H11.625C10.2443 10.2857 9.125 11.437 9.125 12.8571V21.4286C9.125 22.8487 10.2443 24 11.625 24H19.9583C21.339 24 22.4583 22.8487 22.4583 21.4286L22.4583 12.8571C22.4583 11.437 21.339 10.2857 19.9583 10.2857Z" stroke="#2D796D" stroke-width="2" stroke-linecap="round" stroke-linejoin="round"/>
</svg>
