<svg width="32" height="33" viewBox="0 0 32 33" fill="none" xmlns="http://www.w3.org/2000/svg">
<path d="M8 1H24C28.1421 1 31.5 4.35786 31.5 8.5V24.5C31.5 28.6421 28.1421 32 24 32H8C3.85786 32 0.5 28.6421 0.5 24.5V8.5C0.5 4.35786 3.85786 1 8 1Z" stroke="#F3F3F3"/>
<path d="M9.90625 12.1224L15.4664 16.1143C15.7874 16.3448 16.2126 16.3448 16.5336 16.1143L22.0938 12.1224M10.375 22.3307H21.625C22.6605 22.3307 23.5 21.4602 23.5 20.3863V12.6085C23.5 11.5346 22.6605 10.6641 21.625 10.6641H10.375C9.33947 10.6641 8.5 11.5346 8.5 12.6085V20.3863C8.5 21.4602 9.33947 22.3307 10.375 22.3307Z" stroke="#2D796D" stroke-width="2" stroke-linecap="round" stroke-linejoin="round"/>
</svg>
