<svg width="32" height="33" viewBox="0 0 32 33" fill="none" xmlns="http://www.w3.org/2000/svg">
<path d="M8 1H24C28.1421 1 31.5 4.35786 31.5 8.5V24.5C31.5 28.6421 28.1421 32 24 32H8C3.85786 32 0.5 28.6421 0.5 24.5V8.5C0.5 4.35786 3.85786 1 8 1Z" stroke="#F3F3F3"/>
<path d="M23.5 22.3333C23.5 23.2538 22.764 24 21.8562 24L10.1438 24C9.23597 24 8.5 23.2538 8.5 22.3333L8.5 19.8333C8.5 18.9129 9.23597 18.1667 10.1438 18.1667L21.8562 18.1667C22.764 18.1667 23.5 18.9129 23.5 19.8333V22.3333Z" stroke="#FD4D07" stroke-width="2" stroke-linecap="round" stroke-linejoin="round"/>
<path d="M23.5 10.6667C23.5 9.74619 22.764 9 21.8562 9L10.1438 9C9.23597 9 8.5 9.74619 8.5 10.6667L8.5 13.1667C8.5 14.0871 9.23597 14.8333 10.1438 14.8333H21.8562C22.764 14.8333 23.5 14.0871 23.5 13.1667V10.6667Z" stroke="#FD4D07" stroke-width="2" stroke-linecap="round" stroke-linejoin="round"/>
</svg>
