<svg width="32" height="33" viewBox="0 0 32 33" fill="none" xmlns="http://www.w3.org/2000/svg">
<path d="M8 1H24C28.1421 1 31.5 4.35786 31.5 8.5V24.5C31.5 28.6421 28.1421 32 24 32H8C3.85786 32 0.5 28.6421 0.5 24.5V8.5C0.5 4.35786 3.85786 1 8 1Z" stroke="#F3F3F3"/>
<path d="M21 8.5C22.6569 8.5 24 9.84315 24 11.5V21.5001C24 23.1569 22.6569 24.5001 21 24.5001H11C9.34315 24.5001 8 23.1569 8 21.5001L8 11.5C8 9.84315 9.34315 8.5 11 8.5L21 8.5Z" stroke="#FD4D07" stroke-width="2" stroke-linecap="round" stroke-linejoin="round"/>
</svg>
