<svg width="32" height="33" viewBox="0 0 32 33" fill="none" xmlns="http://www.w3.org/2000/svg">
<path d="M8 1H24C28.1421 1 31.5 4.35786 31.5 8.5V24.5C31.5 28.6421 28.1421 32 24 32H8C3.85786 32 0.5 28.6421 0.5 24.5V8.5C0.5 4.35786 3.85786 1 8 1Z" stroke="#F3F3F3"/>
<path d="M10.6923 23.3462V16.4231M10.6923 23.3462H8.38462M10.6923 23.3462H13M10.6923 16.4231V9.5M10.6923 16.4231H21.0769M10.6923 9.5H8.38462M10.6923 9.5H13M21.0769 16.4231V23.3462M21.0769 16.4231V9.5M21.0769 23.3462H18.7692M21.0769 23.3462H23.3846M21.0769 9.5H18.7692M21.0769 9.5H23.3846" stroke="#2D796D" stroke-width="2" stroke-linecap="round" stroke-linejoin="round"/>
</svg>
