<svg width="32" height="33" viewBox="0 0 32 33" fill="none" xmlns="http://www.w3.org/2000/svg">
<path d="M8 1H24C28.1421 1 31.5 4.35786 31.5 8.5V24.5C31.5 28.6421 28.1421 32 24 32H8C3.85786 32 0.5 28.6421 0.5 24.5V8.5C0.5 4.35786 3.85786 1 8 1Z" stroke="#F3F3F3"/>
<path d="M16 16.5L16 20.25M16 13.7205V13.6875M8.5 16.5C8.5 12.3579 11.8579 9 16 9C20.1421 9 23.5 12.3579 23.5 16.5C23.5 20.6421 20.1421 24 16 24C11.8579 24 8.5 20.6421 8.5 16.5Z" stroke="#2D796D" stroke-width="2" stroke-linecap="round" stroke-linejoin="round"/>
</svg>
