<svg width="32" height="33" viewBox="0 0 32 33" fill="none" xmlns="http://www.w3.org/2000/svg">
<path d="M8 1H24C28.1421 1 31.5 4.35786 31.5 8.5V24.5C31.5 28.6421 28.1421 32 24 32H8C3.85786 32 0.5 28.6421 0.5 24.5V8.5C0.5 4.35786 3.85786 1 8 1Z" stroke="#F3F3F3"/>
<path d="M23.2202 22.1403C23.2202 22.1403 22.2546 23.0887 22.018 23.3667C21.6325 23.778 21.1784 23.9723 20.583 23.9723C20.5258 23.9723 20.4647 23.9723 20.4075 23.9684C19.274 23.8961 18.2207 23.4543 17.4307 23.0772C15.2706 22.0337 13.3738 20.5521 11.7976 18.6745C10.4962 17.1091 9.6261 15.6619 9.04982 14.1079C8.6949 13.1596 8.56514 12.4207 8.62238 11.7237C8.66055 11.2781 8.83229 10.9087 9.14905 10.5926L10.4504 9.29385C10.6375 9.11865 10.8359 9.02344 11.0305 9.02344C11.271 9.02344 11.4656 9.16816 11.5877 9.29004C11.5916 9.29385 11.5954 9.29766 11.5992 9.30147C11.832 9.51856 12.0533 9.74327 12.2861 9.98321C12.4045 10.1051 12.5266 10.227 12.6487 10.3526L13.6906 11.3924C14.0951 11.7961 14.0951 12.1694 13.6906 12.5731C13.5799 12.6835 13.473 12.794 13.3624 12.9006C13.0418 13.2282 13.2936 12.9768 12.9616 13.2739C12.954 13.2815 12.9463 13.2853 12.9425 13.2929C12.6143 13.6205 12.6754 13.9404 12.7441 14.1575C12.7479 14.1689 12.7517 14.1804 12.7555 14.1918C13.0265 14.8469 13.4081 15.4639 13.9882 16.1989L13.992 16.2027C15.0454 17.4977 16.1559 18.5069 17.381 19.2801C17.5375 19.3791 17.6978 19.4591 17.8504 19.5353C17.9878 19.6038 18.1176 19.6686 18.2282 19.7371C18.2435 19.7447 18.2588 19.7562 18.274 19.7638C18.4038 19.8285 18.5259 19.859 18.6519 19.859C18.9686 19.859 19.1671 19.661 19.232 19.5962L19.98 18.8497C20.1098 18.7202 20.3159 18.564 20.5563 18.564C20.7929 18.564 20.9876 18.7126 21.1059 18.8421C21.1097 18.8459 21.1097 18.8459 21.1135 18.8497L23.2164 20.9482C23.6094 21.3367 23.2202 22.1403 23.2202 22.1403Z" stroke="#2D796D" stroke-width="2" stroke-linecap="round" stroke-linejoin="round"/>
</svg>
