<svg width="32" height="33" viewBox="0 0 32 33" fill="none" xmlns="http://www.w3.org/2000/svg">
<path d="M8 1H24C28.1421 1 31.5 4.35786 31.5 8.5V24.5C31.5 28.6421 28.1421 32 24 32H8C3.85786 32 0.5 28.6421 0.5 24.5V8.5C0.5 4.35786 3.85786 1 8 1Z" stroke="#F3F3F3"/>
<path d="M14.5 14.5C14.5 13.9477 14.0523 13.5 13.5 13.5C12.9477 13.5 12.5 13.9477 12.5 14.5H14.5ZM12.5 24.5C12.5 25.0523 12.9477 25.5 13.5 25.5C14.0523 25.5 14.5 25.0523 14.5 24.5H12.5ZM11 8.5V9.5H21V8.5V7.5H11V8.5ZM24 11.5H23V21.5H24H25V11.5H24ZM21 24.5V23.5H11V24.5V25.5H21V24.5ZM8 21.5H9V11.5H8H7V21.5H8ZM11 24.5V23.5C9.89543 23.5 9 22.6046 9 21.5H8H7C7 23.7091 8.79086 25.5 11 25.5V24.5ZM24 21.5H23C23 22.6046 22.1046 23.5 21 23.5V24.5V25.5C23.2091 25.5 25 23.7091 25 21.5H24ZM21 8.5V9.5C22.1046 9.5 23 10.3954 23 11.5H24H25C25 9.29086 23.2091 7.5 21 7.5V8.5ZM11 8.5V7.5C8.79086 7.5 7 9.29086 7 11.5H8H9C9 10.3954 9.89543 9.5 11 9.5V8.5ZM13.5 14.5H12.5V24.5H13.5H14.5V14.5H13.5ZM8.5 14V15H23.5V14V13H8.5V14Z" fill="#FD4D07"/>
</svg>
