<svg width="32" height="33" viewBox="0 0 32 33" fill="none" xmlns="http://www.w3.org/2000/svg">
<path d="M8 1H24C28.1421 1 31.5 4.35786 31.5 8.5V24.5C31.5 28.6421 28.1421 32 24 32H8C3.85786 32 0.5 28.6421 0.5 24.5V8.5C0.5 4.35786 3.85786 1 8 1Z" stroke="#F3F3F3"/>
<path d="M10.8468 24.5L8 21.5M8 21.5L10.8468 18.5M8 21.5H22C23.1046 21.5 24 20.6046 24 19.5V16.5M21.1532 8.5L24 11.5M24 11.5L21.1532 14.5M24 11.5L10 11.5C8.89543 11.5 8 12.3954 8 13.5L8 16.5" stroke="#FD4D07" stroke-width="2" stroke-linecap="round" stroke-linejoin="round"/>
</svg>
