<svg width="32" height="33" viewBox="0 0 32 33" fill="none" xmlns="http://www.w3.org/2000/svg">
<path d="M8 1H24C28.1421 1 31.5 4.35786 31.5 8.5V24.5C31.5 28.6421 28.1421 32 24 32H8C3.85786 32 0.5 28.6421 0.5 24.5V8.5C0.5 4.35786 3.85786 1 8 1Z" stroke="#F3F3F3"/>
<path d="M14.5074 20H16.1034M16.1034 20H17.7734M16.1034 20V13M16.1034 13H13.5C13.2239 13 13 13.2239 13 13.5V14.2353M16.1034 13H18.5C18.7761 13 19 13.2239 19 13.5V14.4412M10 24.5H22C23.1046 24.5 24 23.6046 24 22.5V10.5C24 9.39543 23.1046 8.5 22 8.5H10C8.89543 8.5 8 9.39543 8 10.5V22.5C8 23.6046 8.89543 24.5 10 24.5Z" stroke="#2D796D" stroke-width="2" stroke-linecap="round" stroke-linejoin="round"/>
</svg>
