<svg width="32" height="33" viewBox="0 0 32 33" fill="none" xmlns="http://www.w3.org/2000/svg">
<path d="M8 1H24C28.1421 1 31.5 4.35786 31.5 8.5V24.5C31.5 28.6421 28.1421 32 24 32H8C3.85786 32 0.5 28.6421 0.5 24.5V8.5C0.5 4.35786 3.85786 1 8 1Z" stroke="#F3F3F3"/>
<path d="M12.1495 14.9916L10.2883 16.8529C9.59317 17.548 9.19343 18.4938 9.20074 19.4878C9.20804 20.4818 9.59903 21.4334 10.3271 22.139C11.0327 22.8671 11.9845 23.2581 12.9783 23.2654C13.9948 23.2728 14.9183 22.8956 15.6134 22.2005L17.4746 20.3393M19.852 18.0074L21.7132 16.1462C22.4083 15.4511 22.808 14.5053 22.8007 13.5113C22.7934 12.5173 22.4024 11.5657 21.6743 10.8601C20.9689 10.1547 20.0173 9.76366 19.0233 9.75636C18.0293 9.74905 17.0834 10.1261 16.3882 10.8212L14.527 12.6824M13.1783 19.2722L18.762 13.6885" stroke="#2D796D" stroke-width="2" stroke-linecap="round" stroke-linejoin="round"/>
</svg>
